# xmcd
#
# Track frame offsets: 
#        150
#        12705
#        26115
#        39352
#        50410
#        62082
#        75695
#        89642
#        103547
#        117617
#        132055
#
# Disc length: 1916 seconds
#
# Revision: 8
# Processed by: cddbd v1.5.2PL0 Copyright (c) Steve Scherf et al.
# Submitted via: ExactAudioCopy v0.95b4
#
DISCID=94077a0b
DTITLE=Otis Redding - The Dock Of The Bay
DYEAR=1968
DGENRE=Soul
TTITLE0=(Sittin' On) The Dock Of The Bay
TTITLE1=I Love You More Than Words Can Say
TTITLE2=Let Me Come On Home
TTITLE3=Open The Door
TTITLE4=Don't Mess With Cupid
TTITLE5=The Glory Of Love
TTITLE6=I'm Coming Home To See About You
TTITLE7=Tramp
TTITLE8=The Huckle-Buck
TTITLE9=Nobody Knows You (When You're Down And Out)
TTITLE10=Ole Man Trouble
EXTD=YEAR: 1968
EXTT0=
EXTT1=
EXTT2=
EXTT3=
EXTT4=
EXTT5=
EXTT6=
EXTT7=
EXTT8=
EXTT9=
EXTT10=
PLAYORDER=
